<svg width="128" height="113" viewBox="0 0 128 113" fill="none" xmlns="http://www.w3.org/2000/svg">
<rect width="73.3235" height="73.3235" transform="matrix(0.866025 0.5 -0.866025 0.5 63.933 33.7085)" fill="white" stroke="#1A1A1A" stroke-linejoin="bevel"/>
<rect width="73.3235" height="5.33909" transform="matrix(0.866025 0.5 0 1 0.433014 70.3701)" fill="white" stroke="#1A1A1A" stroke-linejoin="bevel"/>
<rect width="73.3235" height="5.33909" transform="matrix(0.866025 -0.5 0 1 63.933 107.032)" fill="white" stroke="#1A1A1A" stroke-linejoin="bevel"/>
<rect width="15.7102" height="31.4596" transform="matrix(-5.16191e-08 -1 0.866025 -0.5 77.263 55.5596)" fill="white" stroke="#1A1A1A" stroke-linejoin="bevel"/>
<rect width="15.6703" height="31.4581" transform="matrix(-0.866025 -0.5 0.866025 -0.5 77.2643 39.8481)" fill="white" stroke="#1A1A1A" stroke-linejoin="bevel"/>
<rect width="15.7104" height="15.6681" transform="matrix(-5.16191e-08 -1 0.866025 0.5 63.6938 47.7246)" stroke="#1A1A1A" stroke-linejoin="bevel"/>
<rect width="15.7102" height="31.4596" transform="matrix(5.16191e-08 -1 -0.866025 -0.5 50.087 55.5596)" fill="white" stroke="#1A1A1A" stroke-linejoin="bevel"/>
<rect width="15.6703" height="31.4581" transform="matrix(0.866025 -0.5 -0.866025 -0.5 50.0857 39.8481)" fill="white" stroke="#1A1A1A" stroke-linejoin="bevel"/>
<rect width="15.7104" height="15.6681" transform="matrix(5.16191e-08 -1 -0.866025 0.5 63.6562 47.7246)" stroke="#1A1A1A" stroke-linejoin="bevel"/>
<rect width="15.7104" height="15.7104" transform="matrix(0.866025 0.5 -0.866025 0.5 63.6931 0.25)" fill="#FF7D55" stroke="#1A1A1A" stroke-linejoin="bevel"/>
<rect width="15.7104" height="75.41" transform="matrix(0.866025 0.5 0 1 50.0876 8.10547)" fill="white" stroke="#1A1A1A" stroke-linejoin="bevel"/>
<rect width="15.7104" height="75.41" transform="matrix(0.866025 -0.5 0 1 63.6931 15.9604)" fill="white" stroke="#1A1A1A" stroke-linejoin="bevel"/>
<rect width="15.7102" height="31.4596" transform="matrix(5.16191e-08 -1 -0.866025 -0.5 90.938 79.1421)" fill="white" stroke="#1A1A1A" stroke-linejoin="bevel"/>
<rect width="15.6703" height="31.4581" transform="matrix(0.866025 -0.5 -0.866025 -0.5 90.9367 63.4307)" fill="white" stroke="#1A1A1A" stroke-linejoin="bevel"/>
<rect width="15.7104" height="15.6681" transform="matrix(5.16191e-08 -1 -0.866025 0.5 104.507 71.3071)" fill="white" stroke="#1A1A1A" stroke-linejoin="bevel"/>
<rect width="15.7102" height="31.4596" transform="matrix(-5.16191e-08 -1 0.866025 -0.5 36.4118 79.1421)" fill="white" stroke="#1A1A1A" stroke-linejoin="bevel"/>
<rect width="15.6703" height="31.4581" transform="matrix(-0.866025 -0.5 0.866025 -0.5 36.4132 63.4307)" fill="white" stroke="#1A1A1A" stroke-linejoin="bevel"/>
<rect width="15.7104" height="15.6681" transform="matrix(-5.16191e-08 -1 0.866025 0.5 22.8427 71.3071)" fill="white" stroke="#1A1A1A" stroke-linejoin="bevel"/>
</svg>
